<?xml version="1.0" encoding="utf-8"?>
<!-- Generator: Adobe Illustrator 15.0.0, SVG Export Plug-In . SVG Version: 6.00 Build 0)  -->
<!DOCTYPE svg PUBLIC "-//W3C//DTD SVG 1.1//EN" "http://www.w3.org/Graphics/SVG/1.1/DTD/svg11.dtd">
<svg version="1.1" id="Layer_1" xmlns="http://www.w3.org/2000/svg" xmlns:xlink="http://www.w3.org/1999/xlink" x="0px" y="0px"
	 width="140.71px" height="14.375px" viewBox="0 0 140.71 14.375" enable-background="new 0 0 140.71 14.375" xml:space="preserve">
<g>
	<path fill="#FE9B01" d="M1.14,2.36h4.725c0.76,0,1.38,0.11,1.86,0.33s0.85,0.495,1.11,0.825c0.26,0.33,0.438,0.69,0.533,1.08
		c0.095,0.39,0.142,0.75,0.142,1.08S9.462,6.363,9.368,6.748C9.272,7.133,9.095,7.49,8.835,7.82c-0.26,0.33-0.63,0.603-1.11,0.817
		c-0.48,0.215-1.1,0.323-1.86,0.323h-2.85v4.11H1.14V2.36z M3.015,7.43H5.76c0.21,0,0.425-0.03,0.645-0.09
		c0.22-0.06,0.422-0.158,0.608-0.292c0.185-0.135,0.335-0.315,0.45-0.54S7.635,6,7.635,5.66c0-0.35-0.05-0.64-0.15-0.87
		S7.25,4.378,7.08,4.243C6.91,4.108,6.715,4.016,6.495,3.965C6.275,3.916,6.04,3.89,5.79,3.89H3.015V7.43z"/>
	<path fill="#FE9B01" d="M10.905,5.315h1.605v1.5h0.03c0.05-0.21,0.147-0.415,0.292-0.615c0.145-0.2,0.32-0.382,0.525-0.547
		c0.205-0.165,0.433-0.297,0.683-0.397c0.25-0.1,0.505-0.15,0.765-0.15c0.2,0,0.338,0.005,0.413,0.015
		c0.075,0.01,0.152,0.021,0.232,0.03V6.8c-0.12-0.02-0.242-0.038-0.367-0.052c-0.125-0.015-0.248-0.023-0.368-0.023
		c-0.29,0-0.563,0.058-0.817,0.173s-0.478,0.285-0.667,0.51S12.89,7.91,12.78,8.24s-0.165,0.71-0.165,1.14v3.69h-1.71V5.315z"/>
	<path fill="#FE9B01" d="M19.47,13.28c-0.62,0-1.173-0.102-1.658-0.307s-0.895-0.488-1.23-0.848c-0.335-0.36-0.59-0.79-0.765-1.29
		c-0.175-0.5-0.263-1.05-0.263-1.65c0-0.59,0.087-1.135,0.263-1.635c0.175-0.5,0.43-0.93,0.765-1.29s0.745-0.643,1.23-0.848
		c0.485-0.205,1.038-0.307,1.658-0.307c0.62,0,1.172,0.103,1.657,0.307c0.485,0.205,0.895,0.488,1.23,0.848s0.59,0.79,0.765,1.29
		s0.263,1.045,0.263,1.635c0,0.6-0.088,1.15-0.263,1.65s-0.43,0.93-0.765,1.29c-0.335,0.359-0.745,0.643-1.23,0.848
		C20.642,13.178,20.089,13.28,19.47,13.28z M19.47,11.93c0.38,0,0.71-0.08,0.99-0.24c0.28-0.16,0.51-0.37,0.69-0.63
		c0.18-0.26,0.313-0.553,0.398-0.878c0.084-0.325,0.127-0.657,0.127-0.997c0-0.33-0.043-0.66-0.127-0.99
		c-0.085-0.33-0.218-0.623-0.398-0.877c-0.18-0.255-0.41-0.462-0.69-0.623c-0.28-0.16-0.61-0.24-0.99-0.24
		c-0.38,0-0.71,0.081-0.99,0.24c-0.28,0.16-0.51,0.368-0.69,0.623c-0.18,0.255-0.313,0.547-0.397,0.877s-0.127,0.66-0.127,0.99
		c0,0.34,0.042,0.672,0.127,0.997c0.085,0.325,0.218,0.618,0.397,0.878c0.18,0.26,0.41,0.47,0.69,0.63
		C18.759,11.85,19.089,11.93,19.47,11.93z"/>
	<path fill="#FE9B01" d="M24.044,5.315h1.275V4.67c0-0.49,0.06-0.887,0.18-1.192c0.12-0.305,0.28-0.54,0.48-0.705
		s0.428-0.275,0.683-0.33c0.255-0.055,0.522-0.083,0.803-0.083c0.55,0,0.95,0.035,1.2,0.105V3.8c-0.11-0.03-0.228-0.052-0.353-0.067
		S28.04,3.71,27.87,3.71c-0.23,0-0.427,0.055-0.592,0.165S27.03,4.2,27.03,4.521v0.795h1.455V6.59H27.03v6.48h-1.71V6.59h-1.275
		V5.315z"/>
	<path fill="#FE9B01" d="M36.029,11.345c0,0.21,0.027,0.36,0.083,0.45c0.055,0.09,0.163,0.135,0.322,0.135c0.05,0,0.11,0,0.18,0
		s0.15-0.01,0.24-0.029v1.185c-0.06,0.021-0.138,0.042-0.233,0.067c-0.095,0.025-0.192,0.047-0.292,0.067s-0.2,0.035-0.3,0.045
		c-0.1,0.011-0.185,0.015-0.255,0.015c-0.35,0-0.64-0.069-0.87-0.209c-0.23-0.141-0.38-0.385-0.45-0.735
		c-0.34,0.33-0.757,0.569-1.252,0.72s-0.973,0.225-1.433,0.225c-0.35,0-0.685-0.047-1.005-0.143c-0.32-0.094-0.603-0.234-0.847-0.42
		c-0.246-0.185-0.44-0.42-0.585-0.705c-0.145-0.284-0.217-0.617-0.217-0.997c0-0.48,0.087-0.87,0.263-1.17
		c0.175-0.3,0.405-0.535,0.69-0.705c0.285-0.17,0.605-0.292,0.96-0.367c0.355-0.075,0.712-0.132,1.072-0.173
		c0.31-0.06,0.605-0.102,0.885-0.127c0.28-0.025,0.527-0.067,0.742-0.127c0.215-0.06,0.385-0.152,0.51-0.277
		s0.188-0.313,0.188-0.563c0-0.22-0.053-0.4-0.158-0.54s-0.235-0.248-0.39-0.323c-0.155-0.075-0.328-0.125-0.518-0.15
		c-0.19-0.025-0.37-0.038-0.54-0.038c-0.48,0-0.875,0.1-1.185,0.3s-0.485,0.51-0.525,0.93h-1.71c0.03-0.5,0.15-0.915,0.36-1.245
		s0.478-0.595,0.803-0.795c0.325-0.2,0.692-0.34,1.102-0.42c0.41-0.08,0.83-0.12,1.26-0.12c0.38,0,0.755,0.04,1.125,0.12
		c0.37,0.081,0.702,0.21,0.998,0.39c0.295,0.18,0.532,0.413,0.712,0.698c0.18,0.285,0.27,0.632,0.27,1.042V11.345z M34.319,9.186
		c-0.26,0.17-0.58,0.272-0.96,0.307c-0.38,0.035-0.76,0.088-1.14,0.158c-0.18,0.03-0.355,0.073-0.525,0.127
		c-0.17,0.055-0.32,0.13-0.45,0.225s-0.232,0.22-0.307,0.375c-0.075,0.155-0.113,0.343-0.113,0.563c0,0.19,0.055,0.35,0.165,0.48
		c0.11,0.13,0.242,0.232,0.397,0.308c0.155,0.075,0.325,0.128,0.51,0.157c0.185,0.03,0.353,0.045,0.502,0.045
		c0.19,0,0.395-0.025,0.615-0.074c0.22-0.051,0.428-0.136,0.623-0.256c0.195-0.12,0.357-0.272,0.488-0.458
		c0.129-0.185,0.195-0.412,0.195-0.682V9.186z"/>
	<path fill="#FE9B01" d="M39.165,10.58c0.05,0.5,0.24,0.85,0.57,1.05c0.33,0.2,0.725,0.3,1.185,0.3c0.16,0,0.343-0.012,0.548-0.037
		c0.205-0.025,0.397-0.072,0.577-0.143c0.18-0.07,0.328-0.173,0.443-0.308c0.115-0.135,0.167-0.313,0.157-0.533
		c-0.01-0.22-0.09-0.4-0.24-0.54c-0.15-0.14-0.343-0.252-0.578-0.337c-0.235-0.085-0.502-0.157-0.803-0.217
		c-0.3-0.06-0.605-0.125-0.915-0.195c-0.32-0.07-0.627-0.155-0.922-0.255c-0.295-0.1-0.56-0.235-0.795-0.405
		S37.97,8.573,37.83,8.308c-0.14-0.265-0.21-0.592-0.21-0.982c0-0.42,0.103-0.772,0.308-1.058c0.205-0.285,0.465-0.515,0.78-0.69
		c0.315-0.175,0.665-0.297,1.05-0.367c0.385-0.07,0.752-0.105,1.102-0.105c0.4,0,0.783,0.042,1.148,0.127
		c0.365,0.085,0.695,0.223,0.99,0.413s0.54,0.438,0.735,0.742c0.195,0.305,0.317,0.673,0.368,1.103h-1.785
		c-0.08-0.41-0.268-0.685-0.563-0.825s-0.632-0.21-1.012-0.21c-0.12,0-0.263,0.01-0.428,0.03s-0.32,0.058-0.465,0.112
		c-0.145,0.055-0.268,0.135-0.368,0.24s-0.15,0.243-0.15,0.413c0,0.21,0.072,0.38,0.217,0.51c0.145,0.13,0.335,0.238,0.57,0.323
		C40.352,8.168,40.62,8.24,40.919,8.3c0.3,0.06,0.61,0.125,0.93,0.195c0.31,0.07,0.615,0.155,0.915,0.255s0.567,0.235,0.802,0.405
		c0.235,0.17,0.425,0.385,0.57,0.645c0.145,0.26,0.217,0.58,0.217,0.96c0,0.46-0.105,0.85-0.315,1.17
		c-0.21,0.32-0.482,0.58-0.817,0.78c-0.335,0.2-0.708,0.345-1.118,0.435S41.29,13.28,40.89,13.28c-0.49,0-0.943-0.055-1.357-0.164
		c-0.415-0.11-0.775-0.277-1.08-0.503c-0.305-0.226-0.545-0.505-0.72-0.84s-0.268-0.732-0.277-1.193H39.165z"/>
	<path fill="#FE9B01" d="M46.949,10.58c0.05,0.5,0.24,0.85,0.57,1.05c0.33,0.2,0.725,0.3,1.185,0.3c0.16,0,0.343-0.012,0.548-0.037
		c0.205-0.025,0.397-0.072,0.577-0.143c0.18-0.07,0.328-0.173,0.443-0.308c0.115-0.135,0.167-0.313,0.157-0.533
		c-0.01-0.22-0.09-0.4-0.24-0.54c-0.15-0.14-0.343-0.252-0.578-0.337c-0.235-0.085-0.502-0.157-0.803-0.217
		c-0.3-0.06-0.605-0.125-0.915-0.195c-0.32-0.07-0.627-0.155-0.922-0.255c-0.295-0.1-0.56-0.235-0.795-0.405
		s-0.422-0.388-0.563-0.653c-0.14-0.265-0.21-0.592-0.21-0.982c0-0.42,0.103-0.772,0.308-1.058c0.205-0.285,0.465-0.515,0.78-0.69
		c0.315-0.175,0.665-0.297,1.05-0.367c0.385-0.07,0.752-0.105,1.102-0.105c0.4,0,0.783,0.042,1.148,0.127
		c0.365,0.085,0.695,0.223,0.99,0.413s0.54,0.438,0.735,0.742c0.195,0.305,0.317,0.673,0.368,1.103h-1.785
		c-0.08-0.41-0.268-0.685-0.563-0.825s-0.632-0.21-1.012-0.21c-0.12,0-0.263,0.01-0.428,0.03s-0.32,0.058-0.465,0.112
		c-0.145,0.055-0.268,0.135-0.368,0.24s-0.15,0.243-0.15,0.413c0,0.21,0.072,0.38,0.217,0.51c0.145,0.13,0.335,0.238,0.57,0.323
		c0.235,0.085,0.502,0.157,0.802,0.217c0.3,0.06,0.61,0.125,0.93,0.195c0.31,0.07,0.615,0.155,0.915,0.255s0.567,0.235,0.802,0.405
		c0.235,0.17,0.425,0.385,0.57,0.645c0.145,0.26,0.217,0.58,0.217,0.96c0,0.46-0.105,0.85-0.315,1.17
		c-0.21,0.32-0.482,0.58-0.817,0.78c-0.335,0.2-0.708,0.345-1.118,0.435s-0.815,0.135-1.215,0.135c-0.49,0-0.943-0.055-1.357-0.164
		c-0.415-0.11-0.775-0.277-1.08-0.503c-0.305-0.226-0.545-0.505-0.72-0.84s-0.268-0.732-0.277-1.193H46.949z"/>
	<path fill="#FE9B01" d="M58.679,7.91c-0.07-0.48-0.262-0.842-0.577-1.087c-0.315-0.245-0.712-0.368-1.192-0.368
		c-0.22,0-0.456,0.038-0.705,0.113c-0.25,0.075-0.48,0.215-0.69,0.42c-0.21,0.205-0.385,0.49-0.525,0.855
		c-0.14,0.365-0.21,0.843-0.21,1.433c0,0.32,0.038,0.64,0.113,0.96c0.075,0.32,0.195,0.605,0.36,0.855s0.377,0.453,0.638,0.607
		c0.26,0.155,0.575,0.232,0.945,0.232c0.5,0,0.913-0.154,1.237-0.465c0.325-0.31,0.527-0.745,0.607-1.305h1.71
		c-0.16,1.01-0.543,1.783-1.148,2.318c-0.605,0.534-1.407,0.802-2.407,0.802c-0.61,0-1.147-0.102-1.612-0.307
		c-0.465-0.205-0.858-0.485-1.178-0.84c-0.32-0.355-0.563-0.778-0.728-1.268c-0.165-0.49-0.248-1.02-0.248-1.59
		c0-0.58,0.08-1.125,0.24-1.635c0.16-0.51,0.4-0.952,0.72-1.327s0.718-0.67,1.193-0.885c0.475-0.215,1.032-0.322,1.672-0.322
		c0.45,0,0.877,0.058,1.282,0.172c0.405,0.115,0.765,0.288,1.08,0.518s0.572,0.52,0.772,0.87s0.32,0.765,0.36,1.245H58.679z"/>
	<path fill="#FE9B01" d="M61.829,2.36h1.71v1.62h-1.71V2.36z M61.829,5.315h1.71v7.755h-1.71V5.315z"/>
	<path fill="#FE9B01" d="M65.535,11.045h2.085v2.025h-2.085V11.045z"/>
	<path fill="#363636" d="M73.599,5.93h1.25v7.141h-1.25V5.93z"/>
	<path fill="#363636" d="M75.699,7.9h0.86V6.35h1.14V7.9h1.03v0.85h-1.03v2.76c0,0.12,0.006,0.224,0.016,0.311
		c0.01,0.086,0.033,0.16,0.07,0.22c0.036,0.06,0.091,0.104,0.164,0.135c0.074,0.03,0.174,0.045,0.301,0.045
		c0.08,0,0.16-0.001,0.24-0.005s0.159-0.016,0.239-0.035v0.881c-0.126,0.013-0.25,0.025-0.37,0.039
		c-0.119,0.014-0.243,0.02-0.369,0.02c-0.301,0-0.543-0.027-0.726-0.084c-0.184-0.057-0.327-0.141-0.431-0.25
		c-0.104-0.11-0.173-0.248-0.209-0.416c-0.037-0.166-0.059-0.355-0.065-0.569V8.75h-0.86V7.9z"/>
	<path fill="#363636" d="M83.879,11.92c0,0.141,0.019,0.24,0.055,0.3s0.108,0.091,0.216,0.091c0.033,0,0.072,0,0.119,0
		s0.1-0.008,0.16-0.021v0.79c-0.04,0.014-0.092,0.027-0.154,0.045c-0.064,0.017-0.129,0.031-0.195,0.045s-0.134,0.023-0.2,0.029
		c-0.067,0.008-0.124,0.011-0.171,0.011c-0.232,0-0.426-0.047-0.579-0.14c-0.153-0.094-0.253-0.257-0.3-0.49
		c-0.227,0.22-0.506,0.38-0.836,0.48c-0.33,0.1-0.648,0.149-0.955,0.149c-0.232,0-0.456-0.032-0.67-0.095
		c-0.213-0.063-0.401-0.156-0.564-0.28c-0.164-0.124-0.293-0.28-0.391-0.47c-0.096-0.19-0.145-0.412-0.145-0.666
		c0-0.32,0.059-0.58,0.176-0.78c0.115-0.2,0.27-0.356,0.459-0.47c0.19-0.113,0.404-0.195,0.641-0.245
		c0.236-0.05,0.475-0.088,0.715-0.115c0.207-0.04,0.403-0.068,0.59-0.085s0.352-0.045,0.495-0.085s0.257-0.102,0.34-0.185
		s0.125-0.208,0.125-0.375c0-0.146-0.034-0.267-0.104-0.36s-0.157-0.165-0.26-0.215c-0.104-0.05-0.219-0.083-0.346-0.1
		S81.853,8.66,81.74,8.66c-0.32,0-0.584,0.067-0.791,0.2c-0.206,0.133-0.322,0.34-0.35,0.62h-1.141
		c0.021-0.333,0.101-0.61,0.24-0.83c0.141-0.22,0.318-0.396,0.535-0.53c0.217-0.133,0.462-0.227,0.735-0.28s0.554-0.08,0.84-0.08
		c0.253,0,0.503,0.027,0.75,0.08s0.468,0.14,0.665,0.26c0.197,0.12,0.355,0.275,0.475,0.465c0.121,0.19,0.181,0.421,0.181,0.695
		V11.92z M82.74,10.48c-0.174,0.113-0.387,0.182-0.641,0.205s-0.507,0.058-0.76,0.105c-0.12,0.02-0.236,0.048-0.35,0.085
		s-0.214,0.086-0.301,0.15c-0.086,0.063-0.154,0.146-0.205,0.25c-0.05,0.104-0.074,0.229-0.074,0.375
		c0,0.126,0.036,0.233,0.109,0.32s0.162,0.155,0.266,0.205s0.217,0.085,0.34,0.104c0.123,0.021,0.234,0.031,0.334,0.031
		c0.127,0,0.264-0.018,0.41-0.051s0.285-0.09,0.416-0.17c0.129-0.08,0.238-0.182,0.324-0.305c0.087-0.124,0.131-0.275,0.131-0.456
		V10.48z"/>
	<path fill="#363636" d="M85.139,5.93h1.14v7.141h-1.14V5.93z"/>
	<path fill="#363636" d="M87.549,5.93h1.14v1.08h-1.14V5.93z M87.549,7.9h1.14v5.17h-1.14V7.9z"/>
	<path fill="#363636" d="M94.259,11.92c0,0.141,0.018,0.24,0.055,0.3s0.108,0.091,0.215,0.091c0.033,0,0.074,0,0.12,0
		c0.047,0,0.101-0.008,0.16-0.021v0.79c-0.04,0.014-0.092,0.027-0.155,0.045c-0.063,0.017-0.128,0.031-0.195,0.045
		c-0.066,0.014-0.133,0.023-0.199,0.029c-0.066,0.008-0.123,0.011-0.17,0.011c-0.234,0-0.427-0.047-0.58-0.14
		c-0.154-0.094-0.254-0.257-0.301-0.49c-0.227,0.22-0.504,0.38-0.834,0.48c-0.33,0.1-0.648,0.149-0.955,0.149
		c-0.234,0-0.457-0.032-0.67-0.095c-0.214-0.063-0.402-0.156-0.565-0.28s-0.294-0.28-0.39-0.47c-0.098-0.19-0.146-0.412-0.146-0.666
		c0-0.32,0.059-0.58,0.175-0.78c0.117-0.2,0.271-0.356,0.461-0.47c0.189-0.113,0.402-0.195,0.64-0.245
		c0.236-0.05,0.475-0.088,0.715-0.115c0.206-0.04,0.403-0.068,0.59-0.085s0.352-0.045,0.495-0.085
		c0.143-0.04,0.256-0.102,0.34-0.185s0.125-0.208,0.125-0.375c0-0.146-0.035-0.267-0.105-0.36c-0.069-0.093-0.156-0.165-0.26-0.215
		c-0.104-0.05-0.219-0.083-0.345-0.1s-0.247-0.025-0.36-0.025c-0.319,0-0.583,0.067-0.789,0.2c-0.207,0.133-0.324,0.34-0.351,0.62
		h-1.14c0.02-0.333,0.1-0.61,0.24-0.83c0.14-0.22,0.318-0.396,0.535-0.53c0.216-0.133,0.461-0.227,0.734-0.28s0.553-0.08,0.84-0.08
		c0.254,0,0.504,0.027,0.75,0.08s0.469,0.14,0.665,0.26c0.196,0.12,0.354,0.275,0.476,0.465c0.119,0.19,0.18,0.421,0.18,0.695V11.92
		z M93.119,10.48c-0.173,0.113-0.387,0.182-0.64,0.205s-0.507,0.058-0.76,0.105c-0.12,0.02-0.237,0.048-0.351,0.085
		s-0.213,0.086-0.299,0.15c-0.088,0.063-0.156,0.146-0.205,0.25c-0.051,0.104-0.076,0.229-0.076,0.375
		c0,0.126,0.037,0.233,0.11,0.32s0.161,0.155,0.265,0.205s0.217,0.085,0.34,0.104c0.124,0.021,0.236,0.031,0.336,0.031
		c0.127,0,0.264-0.018,0.41-0.051s0.285-0.09,0.414-0.17c0.131-0.08,0.238-0.182,0.326-0.305c0.086-0.124,0.129-0.275,0.129-0.456
		V10.48z"/>
	<path fill="#363636" d="M95.49,7.9h1.08v0.76l0.02,0.02c0.173-0.287,0.4-0.511,0.68-0.675c0.28-0.164,0.59-0.245,0.93-0.245
		c0.566,0,1.014,0.147,1.34,0.44c0.327,0.293,0.49,0.733,0.49,1.32v3.55h-1.14V9.82c-0.014-0.407-0.101-0.702-0.26-0.885
		c-0.16-0.184-0.41-0.275-0.75-0.275c-0.194,0-0.367,0.035-0.521,0.105c-0.153,0.07-0.283,0.167-0.39,0.29
		c-0.106,0.124-0.19,0.269-0.25,0.435c-0.06,0.167-0.09,0.344-0.09,0.53v3.05h-1.14V7.9z"/>
	<path fill="#363636" d="M108.99,8.2c-0.055-0.207-0.127-0.396-0.221-0.57s-0.213-0.323-0.359-0.45
		c-0.146-0.126-0.318-0.225-0.516-0.295s-0.425-0.105-0.686-0.105c-0.379,0-0.707,0.077-0.984,0.23s-0.502,0.358-0.675,0.615
		c-0.173,0.256-0.302,0.548-0.386,0.875c-0.083,0.327-0.125,0.66-0.125,1c0,0.34,0.042,0.673,0.125,1
		c0.084,0.327,0.213,0.618,0.386,0.875c0.173,0.256,0.397,0.461,0.675,0.615c0.277,0.152,0.605,0.229,0.984,0.229
		c0.281,0,0.527-0.048,0.74-0.146c0.214-0.096,0.396-0.229,0.551-0.399c0.152-0.17,0.273-0.368,0.359-0.595
		c0.087-0.227,0.144-0.47,0.17-0.73h1.221c-0.027,0.427-0.119,0.817-0.275,1.17c-0.156,0.353-0.368,0.658-0.635,0.916
		c-0.268,0.256-0.58,0.454-0.939,0.594c-0.361,0.141-0.758,0.211-1.191,0.211c-0.533,0-1.012-0.099-1.434-0.295
		c-0.424-0.197-0.782-0.465-1.076-0.806c-0.293-0.34-0.518-0.736-0.674-1.19c-0.157-0.453-0.236-0.937-0.236-1.45
		c0-0.507,0.079-0.987,0.236-1.44c0.156-0.454,0.381-0.85,0.674-1.19c0.294-0.34,0.652-0.61,1.076-0.81c0.422-0.2,0.9-0.3,1.434-0.3
		c0.4,0,0.777,0.055,1.131,0.165s0.665,0.27,0.936,0.48c0.27,0.21,0.488,0.465,0.654,0.765c0.166,0.3,0.27,0.644,0.311,1.03H108.99z
		"/>
	<path fill="#363636" d="M115.769,13.071h-1.12V12.35h-0.021c-0.14,0.26-0.348,0.469-0.625,0.625
		c-0.276,0.156-0.559,0.235-0.845,0.235c-0.68,0-1.171-0.169-1.475-0.505c-0.304-0.337-0.455-0.846-0.455-1.525V7.9h1.14v3.17
		c0,0.454,0.087,0.774,0.26,0.959c0.174,0.188,0.417,0.281,0.73,0.281c0.24,0,0.439-0.037,0.6-0.111
		c0.16-0.072,0.291-0.171,0.391-0.295c0.1-0.123,0.172-0.271,0.215-0.444s0.064-0.36,0.064-0.56v-3h1.141V13.071z"/>
	<path fill="#363636" d="M116.999,5.93h1.14v1.08h-1.14V5.93z M116.999,7.9h1.14v5.17h-1.14V7.9z"/>
	<path fill="#363636" d="M120.239,11.41c0.033,0.333,0.16,0.567,0.38,0.7c0.221,0.134,0.483,0.201,0.79,0.201
		c0.106,0,0.229-0.009,0.365-0.025c0.136-0.018,0.265-0.049,0.385-0.096s0.218-0.115,0.295-0.205s0.112-0.208,0.104-0.354
		c-0.006-0.146-0.059-0.267-0.159-0.36s-0.229-0.168-0.386-0.225c-0.156-0.057-0.334-0.105-0.534-0.145s-0.403-0.083-0.61-0.13
		c-0.213-0.047-0.418-0.104-0.615-0.17c-0.196-0.066-0.373-0.156-0.529-0.27c-0.157-0.113-0.282-0.258-0.375-0.435
		c-0.094-0.177-0.141-0.395-0.141-0.655c0-0.28,0.068-0.515,0.205-0.705s0.311-0.343,0.52-0.46c0.211-0.116,0.443-0.198,0.701-0.245
		c0.256-0.046,0.501-0.07,0.734-0.07c0.267,0,0.521,0.028,0.766,0.085c0.242,0.057,0.463,0.148,0.66,0.275
		c0.195,0.127,0.359,0.292,0.489,0.495c0.13,0.204,0.212,0.449,0.245,0.735h-1.189c-0.055-0.273-0.18-0.457-0.375-0.55
		c-0.197-0.093-0.422-0.14-0.676-0.14c-0.08,0-0.175,0.007-0.285,0.02c-0.109,0.014-0.213,0.039-0.31,0.075s-0.179,0.09-0.245,0.16
		c-0.066,0.07-0.1,0.162-0.1,0.275c0,0.14,0.048,0.253,0.145,0.34c0.097,0.087,0.224,0.159,0.381,0.215
		c0.156,0.057,0.334,0.105,0.534,0.145s0.407,0.083,0.62,0.13c0.207,0.046,0.41,0.103,0.609,0.17
		c0.201,0.066,0.379,0.157,0.535,0.27c0.157,0.113,0.283,0.256,0.381,0.43c0.096,0.174,0.145,0.387,0.145,0.64
		c0,0.306-0.07,0.567-0.21,0.781c-0.14,0.213-0.321,0.387-0.545,0.52s-0.472,0.23-0.745,0.289c-0.273,0.061-0.543,0.091-0.811,0.091
		c-0.326,0-0.628-0.036-0.904-0.11c-0.277-0.073-0.517-0.185-0.721-0.335c-0.203-0.149-0.363-0.337-0.479-0.56
		c-0.116-0.224-0.179-0.489-0.185-0.795H120.239z"/>
	<path fill="#363636" d="M124.599,5.93h1.14v1.08h-1.14V5.93z M124.599,7.9h1.14v5.17h-1.14V7.9z"/>
	<path fill="#363636" d="M126.979,7.9h1.08v0.76l0.021,0.02c0.172-0.287,0.399-0.511,0.68-0.675c0.279-0.164,0.59-0.245,0.93-0.245
		c0.566,0,1.014,0.147,1.34,0.44c0.326,0.293,0.49,0.733,0.49,1.32v3.55h-1.141V9.82c-0.014-0.407-0.1-0.702-0.26-0.885
		c-0.16-0.184-0.41-0.275-0.75-0.275c-0.193,0-0.367,0.035-0.52,0.105c-0.154,0.07-0.283,0.167-0.391,0.29
		c-0.106,0.124-0.189,0.269-0.25,0.435c-0.06,0.167-0.09,0.344-0.09,0.53v3.05h-1.14V7.9z"/>
	<path fill="#363636" d="M133.609,10.78c0,0.2,0.027,0.394,0.085,0.58c0.056,0.187,0.142,0.35,0.255,0.49
		c0.113,0.141,0.256,0.252,0.43,0.336c0.174,0.082,0.381,0.125,0.62,0.125c0.333,0,0.602-0.072,0.806-0.216
		c0.203-0.144,0.354-0.358,0.455-0.645h1.08c-0.061,0.28-0.164,0.531-0.311,0.75c-0.146,0.221-0.324,0.406-0.53,0.556
		s-0.438,0.263-0.694,0.34c-0.258,0.077-0.525,0.115-0.806,0.115c-0.407,0-0.767-0.067-1.08-0.2s-0.578-0.32-0.795-0.561
		c-0.217-0.239-0.38-0.525-0.489-0.859c-0.111-0.333-0.166-0.7-0.166-1.1c0-0.367,0.059-0.715,0.176-1.045
		c0.116-0.33,0.283-0.62,0.5-0.87s0.479-0.448,0.785-0.595s0.652-0.22,1.039-0.22c0.406,0,0.771,0.085,1.096,0.255
		c0.322,0.17,0.592,0.395,0.805,0.675c0.213,0.28,0.368,0.602,0.465,0.965s0.121,0.738,0.075,1.125H133.609z M136.269,10.03
		c-0.014-0.18-0.053-0.353-0.115-0.52c-0.063-0.167-0.15-0.312-0.26-0.435c-0.11-0.123-0.244-0.223-0.4-0.3
		s-0.332-0.115-0.525-0.115c-0.199,0-0.381,0.035-0.545,0.105c-0.163,0.07-0.303,0.167-0.42,0.29
		c-0.117,0.124-0.21,0.269-0.279,0.435c-0.07,0.167-0.109,0.347-0.115,0.54H136.269z"/>
	<path fill="#363636" d="M138.369,11.72h1.391v1.351h-1.391V11.72z"/>
</g>
</svg>
